<svg class="img-fluid" id="outputsvg" xmlns="http://www.w3.org/2000/svg" style="transform: matrix(0.769231, 0, 0, 0.769231, 0, 0); transform-origin: 50% 50% 0px; cursor: move; max-height: none; transition: none 0s ease 0s;" width="432" height="578" viewBox="0 0 4320 5780">
    <g id="laiCA36qR45NSQApS4v9xl" fill="rgb(2,52,105)" style="transform: none;">
        <g>
            <path id="pDM3nzrOl" d="M262 5698 c-12 -40 -22 -79 -22 -86 0 -7 -4 -20 -10 -30 -12 -22 -38 -185 -52 -322 -14 -142 -4 -628 16 -745 8 -49 18 -126 21 -170 4 -44 10 -84 14 -90 3 -5 13 -55 22 -110 26 -157 61 -312 118 -525 10 -36 26 -96 35 -135 10 -38 22 -79 27 -90 5 -11 22 -63 38 -115 58 -184 64 -200 81 -200 18 0 34 81 60 295 6 50 13 107 15 127 36 279 46 876 20 1193 -24 298 -83 699 -123 840 -5 17 -7 35 -5 40 4 12 -46 61 -131 127 -34 26 -66 52 -73 58 -22 18 -28 11 -51 -62z"></path>
            <path id="p2x1wpgMz" d="M2756 5273 c-28 -172 -32 -835 -7 -1078 24 -223 33 -294 47 -385 8 -52 20 -126 25 -165 66 -428 188 -922 360 -1467 51 -160 63 -188 79 -188 11 0 20 7 20 15 0 28 15 15 56 -47 55 -86 134 -249 150 -313 l8 -30 7 30 c4 17 8 75 9 130 2 132 22 310 59 535 6 36 15 97 21 135 5 39 15 97 21 130 6 33 12 123 12 200 1 137 0 143 -41 275 -23 74 -46 144 -51 155 -37 79 -61 135 -61 140 0 4 -7 13 -15 22 -14 14 -12 33 4 33 4 0 22 -21 41 -47 18 -27 49 -70 69 -98 19 -27 45 -70 56 -94 l22 -44 1 89 c4 206 -33 558 -68 639 -5 11 -16 44 -25 72 -22 71 -121 262 -180 348 -56 81 -161 210 -199 242 -14 13 -26 30 -26 38 0 12 12 7 43 -17 23 -18 44 -35 47 -39 3 -3 23 -18 44 -35 42 -30 111 -90 159 -136 16 -16 31 -28 33 -28 6 0 -7 53 -16 65 -4 6 -11 21 -15 35 -12 43 -118 265 -158 330 -43 73 -146 226 -174 259 -111 136 -310 331 -337 331 -8 0 -16 -16 -20 -37z"></path>
            <path id="p1Deohb1kk" d="M2416 2868 c-3 -13 -6 -52 -6 -88 0 -36 -4 -103 -9 -150 -5 -47 -15 -146 -21 -220 -7 -74 -18 -187 -25 -250 -26 -215 -25 -639 1 -780 21 -120 54 -260 69 -295 7 -16 25 -61 41 -100 15 -38 37 -86 47 -105 11 -19 29 -53 41 -75 11 -22 24 -44 29 -50 4 -5 30 -41 58 -80 46 -64 209 -230 276 -281 156 -119 422 -247 557 -270 23 -3 46 -10 51 -14 6 -4 33 -10 60 -14 28 -4 93 -14 145 -22 99 -16 430 -17 446 -1 12 12 -26 34 -111 62 -372 124 -723 413 -995 819 -133 200 -295 542 -377 796 -104 325 -185 688 -220 991 -15 125 -20 149 -34 149 -9 0 -19 -10 -23 -22z"></path>
        </g>
    </g>
    <g id="l6ogQY0ozD4Ae1yxDtJvit1" fill="rgb(11,43,93)" style="transform: none;">
        <g>
            <path id="pL58A3vO4" d="M1790 5760 c5 -10 15 -22 20 -25 12 -7 150 -215 187 -280 46 -81 152 -302 178 -370 36 -94 111 -325 120 -367 3 -18 10 -44 15 -58 6 -14 16 -61 24 -105 8 -44 22 -118 31 -165 19 -101 38 -254 57 -445 13 -141 18 -679 8 -980 -5 -157 7 -273 51 -510 103 -545 213 -888 409 -1271 124 -242 253 -425 430 -608 225 -233 468 -391 727 -472 128 -41 186 -44 115 -6 -23 12 -47 22 -52 22 -23 0 -155 95 -218 157 -118 117 -226 294 -272 448 -42 143 -52 181 -70 274 -10 57 -17 108 -14 113 3 4 1 8 -4 8 -6 0 -13 55 -17 123 -8 129 -22 200 -55 273 -11 24 -23 58 -27 74 -3 17 -9 30 -13 30 -5 0 -12 14 -15 32 -4 18 -11 39 -16 48 -5 8 -22 58 -39 110 -17 52 -38 109 -45 125 -20 43 -117 336 -161 485 -133 451 -244 927 -294 1265 -6 44 -16 103 -21 130 -11 66 -35 259 -51 420 -17 172 -17 815 0 945 7 52 18 98 25 102 6 4 9 9 7 11 -28 25 -242 176 -265 187 -16 8 -32 18 -35 21 -7 10 -247 129 -259 129 -5 0 -11 3 -13 8 -4 10 -179 71 -273 95 -44 11 -89 23 -100 28 -11 4 -35 10 -53 13 -30 5 -32 4 -22 -14z"></path>
            <path id="pLNbeLbLT" d="M483 5602 c-9 -6 -9 -22 3 -72 93 -390 144 -860 144 -1320 0 -234 -17 -559 -35 -675 -2 -16 -7 -50 -9 -75 -15 -133 -28 -230 -42 -300 -13 -68 -13 -81 1 -106 8 -16 15 -37 15 -46 0 -32 18 -19 53 40 67 109 127 237 154 322 14 47 31 96 37 109 13 29 15 377 2 406 -24 52 -44 121 -38 127 4 4 16 -1 27 -10 24 -20 75 -87 75 -99 1 -4 9 -26 20 -48 11 -22 19 -52 20 -66 0 -52 14 -37 36 39 30 102 54 255 54 337 0 89 -27 249 -51 301 -10 24 -19 49 -19 56 0 7 -9 24 -20 38 -11 14 -20 29 -20 33 0 5 -16 29 -35 54 -19 25 -35 50 -35 54 0 23 29 2 109 -79 l86 -87 -4 50 c-1 27 -7 55 -11 60 -4 6 -10 38 -14 73 -17 156 -116 400 -235 582 -97 148 -246 316 -268 302z"></path>
        </g>
    </g>
    <g id="l74aat5tSKTvx5HrM25MT57" fill="rgb(179,146,28)" style="transform: none;">
        <g>
            <path id="pvQwmhnw1" d="M1175 5718 c4 -18 13 -46 21 -63 18 -41 52 -187 60 -260 4 -33 10 -64 14 -70 30 -39 37 -717 9 -900 -5 -38 -17 -122 -24 -185 -14 -109 -22 -167 -43 -289 -8 -46 -6 -66 13 -125 12 -39 32 -114 44 -166 12 -52 28 -117 36 -145 22 -83 52 -249 95 -530 11 -75 26 -226 41 -420 11 -141 7 -429 -7 -565 -5 -45 -4 -53 7 -42 20 19 41 15 34 -7 -3 -10 -14 -83 -25 -162 -10 -79 -24 -160 -30 -179 -42 -144 23 -117 244 98 129 126 263 295 336 421 50 88 51 93 45 146 -4 30 -11 58 -16 61 -5 3 -9 15 -9 27 0 21 -33 118 -79 234 -14 35 -16 51 -8 47 13 -5 100 -132 133 -194 22 -42 20 -50 34 150 5 80 15 194 21 254 12 109 9 172 -22 416 -11 87 -52 261 -69 292 -6 10 -10 23 -10 28 0 11 -29 81 -56 133 -39 76 -49 93 -61 105 -15 15 -18 42 -5 42 19 0 155 -183 198 -266 26 -49 50 -93 54 -99 4 -5 10 -19 12 -30 2 -11 7 84 11 210 6 225 -4 419 -24 439 -5 6 -9 18 -9 29 0 33 -69 225 -107 297 -21 40 -44 84 -52 98 -8 15 -17 29 -20 32 -3 3 -18 23 -32 45 -30 46 -75 100 -137 163 -23 24 -40 47 -37 52 9 15 161 -95 234 -169 l34 -35 -7 29 c-9 35 -118 255 -146 295 -11 15 -20 31 -20 34 0 7 -130 199 -140 206 -3 3 -21 26 -39 53 -18 26 -41 55 -51 65 -10 9 -33 35 -50 57 -79 100 -367 375 -392 375 -6 0 -7 -13 -3 -32z"></path>
        </g>
    </g>
    <g id="l7ZqvBEhC9uJP0LBn4hBhS5" fill="rgb(235,191,31)" style="transform: none;">
        <g>
            <path id="p1HoQvVP1e" d="M1218 3984 c-5 -4 -8 -20 -8 -35 0 -15 -4 -39 -10 -54 -5 -14 -14 -56 -20 -93 -10 -64 -29 -150 -52 -237 -6 -22 -19 -76 -29 -120 -9 -44 -27 -123 -39 -175 -12 -52 -28 -126 -35 -165 -7 -38 -19 -97 -26 -130 -9 -39 -13 -140 -14 -290 0 -207 2 -239 23 -325 28 -114 60 -227 73 -255 4 -11 18 -44 29 -74 31 -80 107 -225 168 -321 80 -123 78 -122 85 -27 7 89 30 165 78 264 l31 63 5 218 c4 136 1 272 -6 364 -7 81 -13 179 -13 218 0 42 -4 70 -10 70 -7 0 -8 18 -4 49 4 28 2 52 -3 55 -10 7 -24 91 -23 148 1 21 -4 38 -9 38 -5 0 -9 12 -8 28 0 15 -1 37 -4 48 -10 43 -19 99 -19 119 1 10 -3 24 -8 30 -5 6 -12 33 -15 60 -4 28 -9 59 -13 70 -3 11 -5 28 -3 38 1 9 -2 17 -7 17 -9 0 -27 75 -23 94 1 4 -3 13 -8 20 -5 6 -14 38 -21 71 -12 62 -17 86 -20 95 -1 3 -2 9 -1 14 1 5 -3 12 -9 16 -6 4 -14 28 -18 54 -4 26 -10 44 -14 40z"></path>
            <path id="pA75Ev6bb" d="M1970 2159 c-103 -179 -338 -447 -502 -571 -61 -45 -69 -64 -40 -89 9 -9 33 -36 52 -60 53 -68 255 -263 356 -344 50 -41 135 -99 190 -130 54 -32 114 -69 133 -83 19 -14 31 -19 26 -12 -5 8 -15 42 -22 75 -33 156 -44 212 -47 235 -2 14 -6 32 -9 40 -3 8 -11 69 -17 135 -11 117 -14 172 -25 600 -6 238 -12 295 -31 295 -7 0 -36 -41 -64 -91z"></path>
        </g>
    </g>
    <g id="l2PyRJNEe6SXiOr6LrqDiGq" fill="rgb(9,26,72)" style="transform: none;">
        <g>
            <path id="pExRGckGp" d="M1820 5762 c0 -14 11 -21 26 -15 21 8 17 23 -6 23 -11 0 -20 -4 -20 -8z"></path>
            <path id="pwJP8wHeP" d="M2060 5690 c0 -5 7 -10 15 -10 8 0 15 5 15 10 0 6 -7 10 -15 10 -8 0 -15 -4 -15 -10z"></path>
            <path id="pl8p7Avf5" d="M2444 3450 c0 -58 1 -81 3 -52 2 28 2 76 0 105 -2 28 -3 5 -3 -53z"></path>
            <path id="pXG9bftsm" d="M3490 1200 c0 -11 7 -20 15 -20 8 0 15 9 15 20 0 11 -7 20 -15 20 -8 0 -15 -9 -15 -20z"></path>
        </g>
    </g>
    <g id="l6T0Udk3qaxycXRBsON7r0B" fill="rgb(173,138,11)" style="transform: none;">
        <g></g>
    </g>
</svg>